<svg id="fc34a054-ba87-42da-a6e8-b117855df9e6" data-name="Layer 1"
    xmlns="http://www.w3.org/2000/svg"
    xmlns:xlink="http://www.w3.org/1999/xlink" viewBox="0 0 20 20">
    <defs>
        <clipPath id="9cb14525-153a-4fc5-96cf-83b63a764a74">
            <path d="M59.78-279a1.15,1.15,0,0,0-1.51.59,1.15,1.15,0,0,0,.59,1.51,7.85,7.85,0,0,1,4.56,8.8,7.85,7.85,0,0,1-7.69,6.25A7.85,7.85,0,0,1,48-268.1a7.85,7.85,0,0,1,4.56-8.8,1.15,1.15,0,0,0,.59-1.51,1.15,1.15,0,0,0-1.51-.59,10.15,10.15,0,0,0-5.89,11.38,10.15,10.15,0,0,0,9.94,8.08,10.15,10.15,0,0,0,9.94-8.08A10.15,10.15,0,0,0,59.78-279Z" style="fill:none"/>
        </clipPath>
        <clipPath id="d8b2d79f-f929-4832-bd89-e322632ba604">
            <path d="M55.73-269.85A1.15,1.15,0,0,0,56.88-271v-9.84A1.15,1.15,0,0,0,55.73-282a1.15,1.15,0,0,0-1.15,1.15V-271a1.15,1.15,0,0,0,.34.81A1.15,1.15,0,0,0,55.73-269.85Z" style="fill:none"/>
        </clipPath>
        <mask id="8a381929-4cd7-4abc-9146-572a58b952b4" x="0.01" y="0.01" width="19.99" height="19.99" maskUnits="userSpaceOnUse">
            <g id="2243f439-0bae-4245-ac52-e73449906f16" data-name="import-to-media-icon-b">
                <polygon id="497780d6-b029-4580-a95a-b7d9a8a71446" data-name="import-to-media-icon-a" points="0.01 0.01 20 0.01 20 20 0.01 20 0.01 0.01" style="fill:#fff"/>
            </g>
        </mask>
    </defs>
    <title>Import to media icon</title>
    <g style="mask:url(#8a381929-4cd7-4abc-9146-572a58b952b4)">
        <path d="M17.25,20H2.77A2.68,2.68,0,0,1,0,17.4V2.61A2.68,2.68,0,0,1,2.77,0H17.25A2.68,2.68,0,0,1,20,2.61V5.73a1.06,1.06,0,0,1-2.11,0V2.61A.63.63,0,0,0,17.25,2H2.77a.63.63,0,0,0-.64.61V17.4a.63.63,0,0,0,.64.61H17.25a.63.63,0,0,0,.64-.61V14.57a1.06,1.06,0,0,1,2.11,0V17.4A2.68,2.68,0,0,1,17.25,20" style="fill:#757575"/>
    </g>
    <path d="M19.21,7.91H14.46V5.16a.42.42,0,0,0-.71-.31L8.56,9.69a.42.42,0,0,0,0,.61l5.19,4.84a.42.42,0,0,0,.71-.31V12.09h4.75A.79.79,0,0,0,20,11.3V8.7a.79.79,0,0,0-.79-.79" style="fill:#757575"/>
</svg>