<svg id="78218cbd-fdf8-4c70-bb3b-309b5513eb42" data-name="Layer 1"
    xmlns="http://www.w3.org/2000/svg"
    xmlns:xlink="http://www.w3.org/1999/xlink" viewBox="0 0 20 20">
    <defs>
        <clipPath id="ee90c22d-6fb4-4085-a335-81ae15170768">
            <path d="M59.78-279a1.15,1.15,0,0,0-1.51.59,1.15,1.15,0,0,0,.59,1.51,7.85,7.85,0,0,1,4.56,8.8,7.85,7.85,0,0,1-7.69,6.25A7.85,7.85,0,0,1,48-268.1a7.85,7.85,0,0,1,4.56-8.8,1.15,1.15,0,0,0,.59-1.51,1.15,1.15,0,0,0-1.51-.59,10.15,10.15,0,0,0-5.89,11.38,10.15,10.15,0,0,0,9.94,8.08,10.15,10.15,0,0,0,9.94-8.08A10.15,10.15,0,0,0,59.78-279Z" style="fill:none"/>
        </clipPath>
        <clipPath id="c83ea009-b424-4315-9036-87c43ca44d1b">
            <path d="M55.73-269.85A1.15,1.15,0,0,0,56.88-271v-9.84A1.15,1.15,0,0,0,55.73-282a1.15,1.15,0,0,0-1.15,1.15V-271a1.15,1.15,0,0,0,.34.81A1.15,1.15,0,0,0,55.73-269.85Z" style="fill:none"/>
        </clipPath>
    </defs>
    <title>logout icon</title>
    <path d="M13.19,2.91a.91.91,0,1,0-.72,1.66,6.19,6.19,0,1,1-4.93,0,.91.91,0,1,0-.72-1.66,8,8,0,1,0,6.38,0Z" style="fill:#757575"/>
    <path d="M10,9.52a.91.91,0,0,0,.91-.91V2.67a.91.91,0,0,0-1.81,0V8.62A.91.91,0,0,0,10,9.52Z" style="fill:#757575"/>
</svg>