<svg id="2bb443b7-1327-4df2-854e-ac151abf9f54" data-name="Layer 1" xmlns="http://www.w3.org/2000/svg" viewBox="0 0 300 300"><title>logo symbol</title><rect width="300" height="300" style="fill:#192034"/><circle cx="166.1" cy="160.92" r="20.6" style="fill:#ddf5ff"/><path d="M173.1,212.55A21.79,21.79,0,0,0,145,225.25l-.15.41a3.86,3.86,0,0,1-4.87,2.47l-.23-.08a69.51,69.51,0,0,1-20.07-12,3.86,3.86,0,0,1-.45-5.44l.12-.14a21.74,21.74,0,0,0-15.07-36.33,67.89,67.89,0,0,1-44.24,1.43A79.86,79.86,0,0,0,73.84,199c39.57,46.67,58.78,55.26,112.8,28a4,4,0,0,1-.52-1A21.79,21.79,0,0,0,173.1,212.55Z" style="fill:#ddf5ff"/><path d="M263.54,92.94c-16.69-20.4-106.93-17.21-122.81-14.3a67.79,67.79,0,0,1,6.63,19.78,21.6,21.6,0,0,0,34.75,6.25,21.88,21.88,0,0,0,5.34-8.34,3.86,3.86,0,0,1,4.87-2.47l.23.08a69.41,69.41,0,0,1,20.07,12,3.86,3.86,0,0,1,.45,5.44l-.12.14a21.79,21.79,0,0,0,19.88,36.09,3.86,3.86,0,0,1,4.7,2.78q0,.16.07.32a71.94,71.94,0,0,1,0,22.17,3.81,3.81,0,0,1-4.46,3l-.3-.07a21.74,21.74,0,0,0-21.17,35.37C249.72,179.47,279.66,111.91,263.54,92.94Z" style="fill:#ddf5ff"/><path d="M125,123.64l-8-4.77a7.25,7.25,0,0,1-3.62-6.29v-4.29a7.25,7.25,0,0,1,3.62-6.29l8-4.77a7.25,7.25,0,0,0,2.68-9.89l0,0-3.81-6.58A7.25,7.25,0,0,0,114,78h0l-8.06,4.77a7.25,7.25,0,0,1-7.25,0L95,80.69a7.25,7.25,0,0,1-3.62-6.29V64.86a7.25,7.25,0,0,0-7.25-7.25H76.51a7.25,7.25,0,0,0-7.25,7.24q0,.1,0,.19v9.53a7.25,7.25,0,0,1-3.62,6.29L62,83a7.25,7.25,0,0,1-7.25,0l-8-4.77a7.25,7.25,0,0,0-9.91,2.61h0L33,87.46a7.25,7.25,0,0,0,2.61,9.91h0l7.91,4.77a7.25,7.25,0,0,1,3.62,6.29v4.29A7.25,7.25,0,0,1,43.52,119l-7.91,4.77A7.25,7.25,0,0,0,33,133.69h0l3.81,6.58a7.25,7.25,0,0,0,9.91,2.63h0l8-4.77a7.25,7.25,0,0,1,7.25,0l3.67,2.15a7.25,7.25,0,0,1,3.62,6.29v8.25a7.25,7.25,0,0,0,7.25,7.25h7.58a7.25,7.25,0,0,0,7.25-7.25h0v-8.25A7.25,7.25,0,0,1,95,140.28l3.72-2.15a7.25,7.25,0,0,1,7.25,0l8,4.77a7.25,7.25,0,0,0,9.9-2.64l0,0,3.81-6.58a7.25,7.25,0,0,0-2.5-9.94Zm-44.86,2a15.4,15.4,0,1,1,15.4-15.4h0a15.4,15.4,0,0,1-15.4,15.4h0Z" style="fill:#3cfffc"/></svg>